<?xml version="1.0" encoding="utf-8"?>
<!-- Generator: Adobe Illustrator 16.0.4, SVG Export Plug-In . SVG Version: 6.00 Build 0)  -->
<!DOCTYPE svg PUBLIC "-//W3C//DTD SVG 1.1//EN" "http://www.w3.org/Graphics/SVG/1.1/DTD/svg11.dtd">
<svg version="1.1" id="Capa_1" xmlns="http://www.w3.org/2000/svg" xmlns:xlink="http://www.w3.org/1999/xlink" x="0px" y="0px"
	 width="16px" height="16px" viewBox="0 0 45.598 45.6" enable-background="new 0 0 45.598 45.6" xml:space="preserve">
<g>
	<path d="M22.799,0C10.228,0,0,10.228,0,22.799C0,35.371,10.228,45.6,22.799,45.6s22.799-10.229,22.799-22.801
		C45.598,10.228,35.37,0,22.799,0z M22.799,41.453c-10.286,0-18.653-8.368-18.653-18.654c0-10.283,8.367-18.652,18.653-18.652
		s18.654,8.368,18.654,18.652C41.453,33.084,33.085,41.453,22.799,41.453z"/>
	<polygon points="30.126,18.52 27.228,15.619 22.876,19.971 18.525,15.619 15.622,18.52 19.974,22.873 15.622,27.226 18.52,30.127 
		22.873,25.773 27.228,30.129 30.13,27.227 25.776,22.871 	"/>
</g>
</svg>
